<svg xmlns:xlink="http://www.w3.org/1999/xlink" xmlns:dc="http://purl.org/dc/elements/1.1/" xmlns:cc="http://creativecommons.org/ns#" xmlns:rdf="http://www.w3.org/1999/02/22-rdf-syntax-ns#" xmlns:svg="http://www.w3.org/2000/svg" xmlns="http://www.w3.org/2000/svg" xmlns:sodipodi="http://sodipodi.sourceforge.net/DTD/sodipodi-0.dtd" xmlns:inkscape="http://www.inkscape.org/namespaces/inkscape" inkscape:version="1.0beta2 (2b71d25, 2019-12-03)" height="952.99896" width="564.96002" sodipodi:docname="IR_Logo_WHITE[2].svg" xml:space="preserve" viewBox="0 0 564.96002 952.99896" y="0px" x="0px" id="Layer_1" version="1.1"><metadata id="metadata85"><rdf:RDF><cc:Work rdf:about=""><dc:format>image/svg+xml</dc:format><dc:type rdf:resource="http://purl.org/dc/dcmitype/StillImage"/><dc:title/></cc:Work></rdf:RDF></metadata><defs id="defs83"/><sodipodi:namedview inkscape:snap-midpoints="false" inkscape:current-layer="Layer_1" inkscape:window-maximized="0" inkscape:window-y="25" inkscape:window-x="0" inkscape:cy="476.50899" inkscape:cx="282.48" inkscape:zoom="0.88416667" fit-margin-bottom="0" fit-margin-right="0" fit-margin-left="0" fit-margin-top="0" showgrid="false" id="namedview81" inkscape:window-height="1263" inkscape:window-width="1629" inkscape:pageshadow="2" inkscape:pageopacity="0" guidetolerance="10" gridtolerance="10" objecttolerance="10" borderopacity="1" inkscape:document-rotation="0" bordercolor="#666666" pagecolor="#ffffff"/>
<style id="style10" type="text/css">
	.st0{fill:#FFFFFF;}
</style>
<g transform="translate(-317.52,-123.49101)" id="g78">
	<path inkscape:connector-curvature="0" id="path12" d="m 489.75,927.43 c 0,0 8.72,-5.51 8.72,-15.92 0,-11.34 -8,-18.59 -22.31,-18.59 H 440.83 V 958 h 20.45 v -22.31 h 13.02 c 9.71,2.07 4.09,9.3 7.44,22.31 0,0 12.75,-0.08 20.21,-0.08 -4.22,-3.2 2.51,-22.01 -7.01,-28.07 -1.89,-1.2 2.08,1.17 -5.19,-2.42 z m -10.62,-14.31 c 0.23,7.9 -13.06,5.55 -17.9,5.81 0.18,-4.2 0,-11.16 0,-11.16 7.39,0.45 17.67,-2.32 17.9,5.35 z" class="st0"/>
	<polygon id="polygon14" points="559.82,905.93 528.21,905.93 528.21,918.95 554.25,918.95 554.25,931.97 528.21,931.97 528.21,944.98 561.68,944.98 561.68,958 507.76,958 507.76,892.92 559.82,892.92 " class="st0"/>
	<polygon id="polygon16" points="591.43,944.98 621.18,944.98 621.18,958 570.98,958 570.98,892.92 591.43,892.92 " class="st0"/>
	<polygon id="polygon18" points="647.21,958 626.76,958 626.76,892.92 647.21,892.92 " class="st0"/>
	<polygon id="polygon20" points="712.29,905.93 680.68,905.93 680.68,918.95 706.71,918.95 706.71,931.97 680.68,931.97 680.68,944.98 714.15,944.98 714.15,958 660.23,958 660.23,892.92 712.29,892.92 " class="st0"/>
	<polygon id="polygon22" points="771.79,905.93 742.04,905.93 742.04,920.81 764.35,920.81 764.35,933.83 742.04,933.83 742.04,958 721.59,958 721.59,892.92 771.79,892.92 " class="st0"/>
	<path inkscape:connector-curvature="0" id="path24" d="m 806.45,150.13 c -6.04,-1.07 -13.35,-6.48 -12.07,-13.45 1.55,-8.45 6.22,-13.43 13.93,-13.18 7.91,0.25 12.31,8.41 12.31,8.41 l -0.23,1.14 h -1.86 c 0,0 -7.39,-5.61 -10.72,-3.98 -2.55,1.25 -5.17,2.84 -5.53,7.39 -0.41,5.06 3.95,8.18 8.36,8.18 4.41,0 9.06,-3.64 9.06,-3.64 l 0.93,0.46 c 0,0 0.23,0.23 -0.23,2.27 -0.43,1.88 -4.46,5.76 -10.31,6.4 l 23.06,123.71 -0.05,100.43 h 17.48 c 0,0 0.3,21.2 -17.43,32.59 l -0.05,80.33 h 17.48 c 0,0 0.17,21.51 -17.56,32.91 l 0.01,194.28 c -5.51,-23.61 -23.47,-53.41 -50.22,-80.01 l -0.13,-112.61 c -19.42,-10.81 -17.2,-34.57 -17.2,-34.57 l 17.33,-0.2 -0.13,-78.15 c -19.42,-10.8 -17.2,-34.57 -17.2,-34.57 l 17.33,-0.21 V 273.84 l 23.64,-123.71 z" class="st0"/>
	<path inkscape:connector-curvature="0" id="path26" d="m 397.74,150.67 c 7.34,-2.05 6.5,-2.46 8.62,-4.96 1.32,-1.55 1.41,-3.91 1.41,-3.91 l -0.93,-0.45 c 0,0 -4.64,3.64 -9.06,3.64 -4.42,0 -8.13,-2.27 -8.36,-8.18 -0.23,-5.91 3.72,-8.41 7.43,-8.64 3.72,-0.23 7.39,4.26 7.39,4.26 l 3.29,0.97 0.23,-1.14 c 0,0 -4.41,-8.86 -12.31,-8.41 -6.26,0.36 -12.85,2.35 -13.93,13.18 -0.7,7.05 6.03,12.37 12.07,13.44 l -23.06,123.71 0.05,100.43 H 353.1 c 0,0 -0.3,21.2 17.43,32.59 l 0.05,80.33 H 353.1 c 0,0 -0.17,21.51 17.55,32.91 L 371,708.81 c 10.22,-26.03 23.13,-47.49 49.88,-74.09 l 0.13,-112.61 c 19.42,-10.81 17.2,-34.57 17.2,-34.57 l -17.33,-0.2 0.13,-78.16 c 19.42,-10.8 17.2,-34.57 17.2,-34.57 l -17.33,-0.2 V 274.19 L 397.74,150.67 Z" class="st0"/>
	<path inkscape:connector-curvature="0" id="path28" d="m 603.86,576.04 c 0,0 0,128.59 0,130.15 -1.31,0 -10.13,0 -11.44,0 0,-1.56 0,-128.3 0,-128.3 h -12.07 l -0.12,0.04 c -69.09,22.98 -91.24,83.14 -101.89,112.05 -2.58,7 -4.46,12.06 -6.14,14.34 -0.76,0 -11.05,-0.03 -12.78,-0.03 11.32,-41.91 36,-97.53 89.51,-126.8 l -0.67,-1.43 c -93.67,37.39 -139.57,76.82 -169.32,145.48 l -0.48,1.11 h 444.87 l -0.4,-1.06 C 788.56,628.79 700.41,591.21 650.92,577.07 l -3.18,-0.96 -0.67,1.43 c 54.35,26.34 85.86,84.93 92.37,128.65 -1.5,0 -8.94,0 -9.74,0 -2.47,-4.28 -4.77,-10.48 -7.41,-17.66 -11.33,-30.75 -30.3,-82.2 -106.19,-112.44 l -0.14,-0.05 z" class="st0"/>
	<path inkscape:connector-curvature="0" id="path30" d="m 604.65,576.83 h 11.16 c 94.27,37.56 100.41,108.21 113.42,130.16 h 11.16 c -6.88,-48.53 -41.23,-105.08 -92.97,-130.16 4.46,2.05 132.01,29.56 174.78,145.03 H 379.67 c 31.42,-72.51 82.24,-110.47 168.89,-145.06 -49.27,26.96 -76.54,77.12 -90.17,128.29 l 14.25,0.04 c 8.93,-11.16 21.76,-97.8 107.84,-126.44 h 11.16 v 128.3 h 13.01 z" class="st0"/>
	<path inkscape:connector-curvature="0" id="path32" d="m 353.07,853.58 c 6.27,60.86 34.77,117.12 80.27,158.42 45.82,41.59 105.16,64.49 167.09,64.49 125.45,0 230.63,-95.74 244.66,-222.71 l 0.97,-8.77 -493.88,-0.16 z m 90.9,146.72 c -40.42,-36.69 -66.49,-86 -74.07,-139.62 16.93,0.01 441.25,0.14 458.3,0.14 -16.9,114.55 -113.3,199.87 -227.77,199.87 -57.99,0 -113.56,-21.45 -156.46,-60.39 z" class="st0"/>
	<path inkscape:connector-curvature="0" id="path34" d="m 476.87,975.09 c 28.21,62.97 72.48,99.08 121.45,99.08 49.47,0 93.45,-35.86 120.67,-98.39 l -13.64,-5.94 c -25.1,57.68 -63.11,89.45 -107.03,89.45 -42.85,0 -82.17,-32.91 -107.88,-90.29 z" class="st0"/>
	<polygon id="polygon36" points="607.65,971.07 592.77,971.02 592.41,1066.13 607.29,1066.19 " class="st0"/>
	<path inkscape:connector-curvature="0" id="path38" d="m 448.53,853.28 0.08,7.35 c -0.09,5.9 -0.21,12.59 2.1,23.33 l 14.54,-3.11 c -1.94,-9.08 -1.86,-14.38 -1.77,-19.98 l -0.1,-8.5 z" class="st0"/>
	<path inkscape:connector-curvature="0" id="path40" d="m 734.83,860.03 c -0.44,6.53 -0.75,11.25 -3.5,18.8 l 13.98,5.08 c 3.47,-9.54 3.9,-16.03 4.36,-22.9 l 0.19,-2.81 -14.83,-1.09 z" class="st0"/>
	<polygon id="polygon42" points="607.29,882.4 607.29,853.25 592.41,853.25 592.41,882.4 " class="st0"/>
	<path inkscape:connector-curvature="0" id="path44" d="m 631.75,737.81 v 94.55 h 29.47 c 0,0 0,-65.39 0,-66.93 1.52,0 53.53,-0.02 53.53,-0.02 1.99,0 5.43,0.88 6.19,6.75 0,0 0,0.14 0,0.39 0,5.15 0.06,59.02 0.06,59.02 v 0.79 h 33.19 V 770.2 c 0,-13.06 -7.93,-32.39 -24.96,-32.4 h -97.48 z" class="st0"/>
	<path inkscape:connector-curvature="0" id="path46" d="m 729.22,738.59 c 16.24,0.01 24.17,18.78 24.17,31.61 v 61.36 h -31.61 c 0,0 -0.06,-41.85 -0.06,-59.51 -0.93,-7.21 -5.74,-7.44 -6.97,-7.44 -8.33,0 -28.39,0.01 -54.32,0.01 v 66.94 h -27.89 v -92.97 c 5.2,0 53.66,-0.02 96.68,0 z" class="st0"/>
	<path inkscape:connector-curvature="0" id="path48" d="m 317.52,737.81 v 8.04 h 0.79 c 1.13,0 4.14,0.42 4.79,2.23 0,0.38 0.09,73.67 0.09,73.67 0,1.92 -3.74,3.17 -5.05,3.46 l -0.62,0.14 v 7 h 44.35 l -0.05,-7.43 -0.81,0.02 c -0.17,0 -4.18,0.08 -4.57,-2.97 l 0.01,-73.59 c 0,-2.58 4.71,-3.43 4.76,-3.44 l 0.66,-0.11 v -7.04 h -44.35 z" class="st0"/>
	<path inkscape:connector-curvature="0" id="path50" d="m 318.31,738.59 h 42.76 v 5.58 c 0,0 -5.42,0.89 -5.42,4.22 v 73.69 c 0.49,3.82 5.38,3.66 5.38,3.66 l 0.04,5.83 h -42.76 v -5.58 c 0,0 5.67,-1.24 5.67,-4.24 l -0.09,-73.86 c -0.91,-2.83 -5.58,-2.83 -5.58,-2.83 z" class="st0"/>
	<path inkscape:connector-curvature="0" id="path52" d="m 373.26,737.81 0.04,0.83 c 0.24,4.77 0.17,5.85 0.08,6.99 l -0.08,2.27 c 0,9.87 11.91,24.03 21.48,35.42 5.7,6.77 11.08,13.17 11.25,15.75 0.16,2.35 -0.5,4.33 -1.95,5.88 -2.08,2.23 -5.83,3.5 -10.28,3.5 h -24.02 l -0.2,23.91 h 41.7 c 7.74,0 15.74,-3.53 21.4,-9.44 5.11,-5.33 7.76,-12.01 7.47,-18.82 -0.58,-13.5 -10.46,-24.34 -20.02,-34.82 -9.23,-10.12 -17.94,-19.68 -17.36,-30.63 l 0.05,-0.83 h -29.56 z" class="st0"/>
	<path inkscape:connector-curvature="0" id="path54" d="m 374.09,738.59 h 27.89 c -1.2,22.76 36.26,39.34 37.38,65.53 0.65,15.32 -13.95,27.44 -28.08,27.44 h -40.9 l 0.19,-22.33 h 23.24 c 7.25,0 13.48,-3.25 13.02,-10.22 -0.48,-7.24 -32.73,-35.31 -32.73,-51.12 -0.01,-3.16 0.36,-2.04 -0.01,-9.3 z" class="st0"/>
	<path inkscape:connector-curvature="0" id="path56" d="m 443.96,737.81 v 94.55 h 72.23 v -23.89 c 0,0 -39.38,0 -40.91,0 0,-1.55 0,-70.65 0,-70.65 h -31.32 z" class="st0"/>
	<polygon id="polygon58" points="474.49,809.25 515.4,809.25 515.4,831.56 444.75,831.56 444.75,738.59 474.49,738.59 " class="st0"/>
	<path inkscape:connector-curvature="0" id="path60" d="m 855.66,737.81 c -8.32,0 -49.86,2.28 -50.99,47.25 -0.34,13.34 3.83,24.84 12.05,33.27 8.82,9.04 21.99,14.02 37.08,14.02 h 28.68 v -23.88 l -8.98,-0.14 c -4.24,-0.1 -8.24,-0.19 -12.18,0.02 -8.95,-1.13 -24.08,-5.81 -23.34,-24.35 0.57,-14.18 9.04,-22.31 23.26,-22.31 h 21.24 V 737.8 h -26.82 z" class="st0"/>
	<path inkscape:connector-curvature="0" id="path62" d="m 855.66,738.59 h 26.03 v 22.31 h -20.45 c -14.13,0 -23.45,8.16 -24.05,23.07 -0.66,16.56 10.93,23.51 24.17,25.17 6.29,-0.33 12.68,0.11 20.33,0.11 v 22.31 H 853.8 c -28.63,0 -49.06,-17.78 -48.34,-46.48 0.94,-37.53 31.37,-46.49 50.2,-46.49 z" class="st0"/>
	<polygon id="polygon64" points="705.84,832.35 705.84,769.41 676.37,769.41 676.37,832.35 " class="st0"/>
	<polygon id="polygon66" points="705.05,831.56 677.16,831.56 677.16,770.2 705.05,770.2 " class="st0"/>
	<path inkscape:connector-curvature="0" id="path68" d="m 758.19,737.78 v 8.04 h 0.79 c 1.13,0 4.14,0.42 4.79,2.23 0,0.38 0.09,73.67 0.09,73.67 0,1.92 -3.74,3.18 -5.05,3.47 l -0.62,0.14 v 7 h 44.35 l -0.1,-7.13 -0.76,-0.02 c -0.17,-0.01 -4.18,-0.14 -4.58,-3.22 l 0.01,-73.59 c 0,-2.58 4.71,-3.43 4.76,-3.44 l 0.66,-0.11 v -7.04 z" class="st0"/>
	<path inkscape:connector-curvature="0" id="path70" d="m 758.98,738.57 h 42.76 v 5.58 c 0,0 -5.42,0.89 -5.42,4.22 v 73.69 c 0.49,3.81 5.34,3.91 5.34,3.91 l 0.08,5.57 h -42.76 v -5.58 c 0,0 5.67,-1.24 5.67,-4.24 l -0.09,-73.85 c -0.91,-2.83 -5.57,-2.83 -5.57,-2.83 z" class="st0"/>
	<path inkscape:connector-curvature="0" id="path72" d="m 560.71,737.81 5,12.33 c 0.88,2.35 1.55,4.14 4.24,9.98 -2.24,0 -25.35,0 -25.35,0 l -26.27,69.44 v 2.8 l 35.66,-0.02 0.03,-0.76 c 0,-0.02 0.15,-2.3 1.42,-4.81 0.97,0 32.83,0 34.04,0 0.26,1.11 0.88,3.42 1.88,5.17 l 0.23,0.4 38.03,0.02 v -2.8 l -35.58,-91.75 z m 10.55,33.45 c 2.28,7.02 8.44,25.24 9.98,29.77 -1.87,0 -16.52,0 -18.3,0 1.22,-4.3 6.23,-21.79 8.32,-29.77 z" class="st0"/>
	<path inkscape:connector-curvature="0" id="path74" d="m 593.49,738.59 h -31.61 c 6.14,14.32 3.53,9.85 9.3,22.31 h -26.03 l -26.03,68.79 v 1.86 l 34.11,-0.02 c 0,0 0.1,-2.69 1.7,-5.57 h 35.18 c 0,0 0.65,3.33 1.93,5.57 l 36.78,0.02 v -1.86 z m -31.61,63.22 c 0,0 7.81,-27.15 9.3,-33.47 0.37,1.68 11.16,33.47 11.16,33.47 z" class="st0"/>
	<path inkscape:connector-curvature="0" id="path76" d="m 607.98,557.4 v -11.44 l -3.27,-5.64 0.05,-5.08 c 1.95,-1.01 3.18,-2.47 3.37,-3.3 0.31,-1.37 0.15,-1.53 0.15,-1.53 l -0.62,-0.3 c 0,0 -3.12,2.44 -6.08,2.44 -2.96,0 -5.46,-1.52 -5.61,-5.49 -0.15,-3.96 2.49,-5.64 4.99,-5.8 2.49,-0.15 5.92,3.51 5.92,3.51 h 1.25 l 0.15,-0.76 c 0,0 -2.96,-5.95 -8.26,-5.64 -4.2,0.24 -9.35,3.51 -9.35,8.84 0,3.59 2.45,6.57 5.3,8.08 v 5.03 l -3.11,6.1 v 11.29 c -104.65,19.21 121.89,16.3 15.12,-0.31 z" class="st0"/>
</g>
</svg>